# xmcd CD database file
#
# Track frame offsets:
#	150
#	3883
#	13922
#	29634
#	37394
#
# Disc length: 653 seconds
#
# Revision: 0
# Processed by: cddbd v1.5.2PL0 Copyright (c) Steve Scherf et al.
# Submitted via: CDex 1.70beta2
#
DISCID=3c028b05
DTITLE=SCARECROW (FINLAND) - BRAINEATERS (2012 E.P)
DYEAR=2012
DGENRE=Thrash Metal
TTITLE0=INTRO
TTITLE1=KILLIN MACHINE
TTITLE2=SKULLFUCKERS
TTITLE3=EINE SYMPHONIE DES GRAUENS
TTITLE4=UNDEAD NAZI BASTARDS
EXTD=YEAR: 2012
EXTT0=
EXTT1=
EXTT2=
EXTT3=
EXTT4=
PLAYORDER=
